<?xml version="1.0" encoding="UTF-8"?>
<svg version="1.1" xmlns="http://www.w3.org/2000/svg" width="24" height="24">
<path d="M0 0 C0.70125 0.00515625 1.4025 0.0103125 2.125 0.015625 C2.82625 0.01046875 3.5275 0.0053125 4.25 0 C6.125 0.265625 6.125 0.265625 8.125 2.265625 C8.25 4.890625 8.25 4.890625 8.125 7.265625 C8.785 7.265625 9.445 7.265625 10.125 7.265625 C10.125 11.885625 10.125 16.505625 10.125 21.265625 C4.845 21.265625 -0.435 21.265625 -5.875 21.265625 C-5.875 16.645625 -5.875 12.025625 -5.875 7.265625 C-5.215 7.265625 -4.555 7.265625 -3.875 7.265625 C-3.91625 6.481875 -3.9575 5.698125 -4 4.890625 C-3.85062795 1.75381204 -3.24877539 0.46024318 0 0 Z M0.125 3.265625 C-0.535 4.585625 -1.195 5.905625 -1.875 7.265625 C0.765 7.265625 3.405 7.265625 6.125 7.265625 C5.465 5.945625 4.805 4.625625 4.125 3.265625 C2.805 3.265625 1.485 3.265625 0.125 3.265625 Z M-3.875 9.265625 C-3.875 12.565625 -3.875 15.865625 -3.875 19.265625 C0.085 19.265625 4.045 19.265625 8.125 19.265625 C8.125 15.965625 8.125 12.665625 8.125 9.265625 C4.165 9.265625 0.205 9.265625 -3.875 9.265625 Z " fill="#000000" transform="translate(9.875,0.734375)"/>
<path d="M0 0 C0.66 0 1.32 0 2 0 C2 0.66 2 1.32 2 2 C1.34 2 0.68 2 0 2 C0 1.34 0 0.68 0 0 Z " fill="#000000" transform="translate(15,14)"/>
<path d="M0 0 C0.66 0 1.32 0 2 0 C2 0.66 2 1.32 2 2 C1.34 2 0.68 2 0 2 C0 1.34 0 0.68 0 0 Z " fill="#000000" transform="translate(11,14)"/>
<path d="M0 0 C0.66 0 1.32 0 2 0 C2 0.66 2 1.32 2 2 C1.34 2 0.68 2 0 2 C0 1.34 0 0.68 0 0 Z " fill="#000000" transform="translate(7,14)"/>
</svg>
